<svg xmlns="http://www.w3.org/2000/svg" viewBox="0 0 300 300"><defs><style>.cls-1{isolation:isolate;}.cls-2{opacity:0.01;}.cls-3{fill:#fff;}.cls-4{fill:#3b4049;}.cls-11,.cls-15,.cls-5{fill:#525764;}.cls-6{fill:#825438;}.cls-7{fill:#724d33;}.cls-8{fill:#865f43;}.cls-10,.cls-9{fill:#996745;}.cls-10{opacity:0.2;}.cls-10,.cls-15{mix-blend-mode:screen;}.cls-11{stroke:#3b4049;stroke-width:1.32px;}.cls-11,.cls-17,.cls-18{stroke-miterlimit:10;}.cls-12{fill:#d8e1ee;}.cls-13{fill:#414141;}.cls-14{fill:#fcfae4;}.cls-15{opacity:0.3;}.cls-16{opacity:0.5;mix-blend-mode:multiply;}.cls-17,.cls-18{fill:none;stroke:#996745;stroke-width:1.58px;}.cls-18{stroke-dasharray:2.62 2.62;}</style></defs><title>bags-square-300</title><g class="cls-1"><g id="Layer_2" data-name="Layer 2"><path class="cls-2 cls-3" d="M150 6a144 144 0 0 1 101.82 245.82A144 144 0 1 1 48.18 48.18 143 143 0 0 1 150 6m0-6a150 150 0 1 0 150 150A150 150 0 0 0 150 0z" id="Layer_2-2" data-name="Layer 2"/><g id="Layer_1-2" data-name="Layer 1"><g id="pack"><path class="cls-4" d="M72.35 91.65c7.4-31.1 22-78.36 25.5-89.65h-23.1c-5.62 18.34-17 56.1-23.44 83.23-11.4 47.9-11.06 84.08 1 107.5 8.78 17 20.72 20.84 22 21.22L79.76 190l.35.1c-.28-.05-28.38-11.83-7.75-98.45z"/><path class="cls-5" d="M74.75 2c6.2 8.85 25.77 39.32 30.77 77.54l21.6-2.83C123 44.8 110 18 100.63 2z"/><path class="cls-4" d="M227.65 91.65c-7.4-31.1-22-78.36-25.5-89.65h23.1c5.62 18.34 17 56.1 23.44 83.23 11.4 47.9 11.06 84.08-1 107.5-8.78 17-20.72 20.84-22 21.22L220.24 190a3.34 3.34 0 0 0-.35.1c.28-.05 28.38-11.83 7.75-98.45z"/><path class="cls-5" d="M225.25 2c-6.2 8.85-25.77 39.32-30.77 77.54l-21.6-2.83C177.04 44.8 190 18 199.37 2z"/><path class="cls-6" d="M77.93 289.13a5.72 5.72 0 0 1-1.18-.14h-.18c-8.45-1.84-21.23-4.6-26.24-25.84-6.26-26.52 12.33-81.9 15.28-90.4l16-1.84c0 15.38.22 109.35.2 111-.1 4.83-1.4 7.28-3.9 7.28z"/><path class="cls-7" d="M79.77 173c.07 39.26.2 107.23.18 108.82s-.3 5.43-2 5.43a3.9 3.9 0 0 1-.78-.1H77c-8.48-1.82-20.08-4.33-24.8-24.4-5.93-25.08 11-76.94 14.83-88.24l12.74-1.5m3.76-4.22L64.23 171s-22.7 63-15.73 92.56c5.32 22.55 19.37 25.44 27.86 27.28a7.63 7.63 0 0 0 1.57.17c2.56 0 5.65-1.54 5.8-9.12l-.2-113.1z"/><path class="cls-7" d="M83.53 253.45s-1.44 30.12-8.4 31.9c-6.15 1.6-17.68-4.5-24.24-14.18 6.36 15.65 18 18.06 25.46 19.67 2.63.57 7.2.3 7.36-9 .03-1.75-.2-28.4-.2-28.4z"/><path class="cls-7" d="M81 245s-2.37 29.8-8.7 31.9c-9.9 3.32-19-7.67-21.84-18.9 0 20 14.7 28 22.94 29.92 2.43.55 7.6-5.25 7.77-14.5 0-1.8-.17-28.42-.17-28.42zM81.2 186v-7.8l-19.33 2.2s-5.35 14.87-10.06 33.54c1.8.72 8.48-4.5 18.5-24.15 3.8-7.46 10.43-4.07 10.9-3.8z"/><path class="cls-8" d="M53.07 210.07a2.75 2.75 0 0 1-2.4-1.48c-3.4-6 2.95-28.3 8.57-37.87 2.68-4.55 7.87-7 15-7a34.86 34.86 0 0 1 7.56.84l1.44.36-.18 18.4-2.44-.77a6.68 6.68 0 0 0-1.75-.2c-2.08 0-5.07.8-7.46 4.6l-1.8 2.9c-4.44 7.22-10 16.2-14.83 19.6a3 3 0 0 1-1.72.57z"/><path class="cls-7" d="M74.26 165.66a33 33 0 0 1 7.1.78l-.14 14.36a8.32 8.32 0 0 0-2.33-.3c-2.4 0-6.16.86-9.07 5.5-4.6 7.4-10.94 18.32-16.12 21.94a1.1 1.1 0 0 1-.63.25c-3.24 0-.72-22 7.8-36.52 2.88-4.9 8.7-6 13.4-6m0-3.77c-7.87 0-13.62 2.73-16.65 7.9-7.27 12.36-11.9 33.9-8.57 39.74a4.62 4.62 0 0 0 4 2.44 4.84 4.84 0 0 0 2.8-.93c5.17-3.6 10.6-12.4 15.37-20.13L73 188c1.55-2.48 3.52-3.74 5.86-3.74a5.05 5.05 0 0 1 1.24.14L85 186v-5.13l.14-14.36v-3l-2.9-.7a37.38 37.38 0 0 0-8-.9z"/><path class="cls-6" d="M224.46 289.13c-2.5 0-3.8-2.45-3.9-7.28l.18-111 16 1.84c2.95 8.5 21.54 63.87 15.28 90.4-5 21.22-17.78 24-26.24 25.82h-.18a5.65 5.65 0 0 1-1.14.2z"/><path class="cls-7" d="M222.63 173l12.75 1.47c3.86 11.3 20.76 63.16 14.85 88.23-4.74 20.07-16.34 22.6-24.8 24.42h-.2a3.8 3.8 0 0 1-.77.1c-1.73 0-2-3.8-2-5.43s.1-69.6.18-108.84m-3.77-4.22s-.22 111.32-.18 113.1c.13 7.6 3.2 9.14 5.77 9.14a7.73 7.73 0 0 0 1.58-.17c8.48-1.83 22.54-4.72 27.86-27.27 7-29.52-15.72-92.58-15.72-92.58l-19.3-2.2z"/><path class="cls-7" d="M218.86 253.45s1.44 30.12 8.4 31.9c6.15 1.6 17.68-4.5 24.24-14.18-6.37 15.65-18.05 18.06-25.46 19.67-2.64.57-7.2.3-7.36-9-.04-1.75.18-28.4.18-28.4z"/><path class="cls-7" d="M221.43 245s2.37 29.8 8.7 31.9c9.9 3.32 19-7.67 21.84-18.9 0 20-14.7 28-22.94 29.92-2.43.55-7.6-5.25-7.77-14.5-.03-1.8.17-28.42.17-28.42zM221.2 186v-7.8l19.3 2.22s5.35 14.87 10.06 33.54c-1.8.72-8.47-4.5-18.5-24.15-3.78-7.46-10.4-4.07-10.86-3.8z"/><path class="cls-8" d="M249.32 210.07a3 3 0 0 1-1.72-.58c-4.85-3.4-10.38-12.37-14.83-19.57L231 187c-2.4-3.82-5.37-4.62-7.46-4.62a7 7 0 0 0-1.77.2l-2.4.74v-2.5l-.24-15.82 1.45-.36a34.82 34.82 0 0 1 7.55-.84c7.15 0 12.35 2.4 15 7 5.62 9.57 12 31.9 8.56 37.86a2.75 2.75 0 0 1-2.38 1.4z"/><path class="cls-7" d="M228.13 165.66c4.7 0 10.5 1.1 13.4 6 8.5 14.5 11 36.5 7.8 36.5a1.1 1.1 0 0 1-.65-.24c-5.18-3.62-11.5-14.55-16.12-21.93-2.9-4.66-6.67-5.52-9.06-5.52a8.32 8.32 0 0 0-2.33.3l-.17-14.34a33 33 0 0 1 7.1-.78m0-3.77a37.38 37.38 0 0 0-8 .88l-2.88.72v3l.14 14.36v5.1l4.87-1.55a5.6 5.6 0 0 1 1.18-.1c2.35 0 4.32 1.25 5.87 3.73l1.8 2.9c4.78 7.74 10.2 16.5 15.36 20.12a4.84 4.84 0 0 0 2.8.93 4.62 4.62 0 0 0 4-2.44c3.34-5.83-1.3-27.38-8.57-39.75-3-5.17-8.78-7.9-16.64-7.9z"/><rect class="cls-7" x="81.43" y="76.02" width="139.3" height="221.98" rx="7.41" ry="7.41"/><rect class="cls-8" x="83.31" y="59.53" width="135.53" height="218.21" rx="5.53" ry="5.53"/><path class="cls-7" d="M213.3 61.4a3.66 3.66 0 0 1 3.7 3.66V272.2a3.65 3.65 0 0 1-3.65 3.65H88.85a3.64 3.64 0 0 1-3.65-3.64V65.07a3.65 3.65 0 0 1 3.64-3.65H213.3m0-3.76H88.85a7.42 7.42 0 0 0-7.4 7.42V272.2a7.4 7.4 0 0 0 7.4 7.42H213.3a7.42 7.42 0 0 0 7.43-7.4V65.05a7.42 7.42 0 0 0-7.42-7.42z"/><path class="cls-7" d="M195.37 156H106.8c-10.06 0-18.75 21.9-18 27 1.3 8.88 3.15 32.78 11.36 32.78H202c8.22 0 10.05-23.9 11.38-32.78.73-5.14-7.96-27-18-27zM213.4 76H88.93a7.42 7.42 0 0 0-7.42 7.4v21.83c4.16 6.94 9 12.5 13.16 12.5H207.5c4.24 0 9.12-5.7 13.3-12.78V83.43a7.4 7.4 0 0 0-7.4-7.43z"/><path class="cls-4" d="M149.52 64h-1.2a5 5 0 0 1-5.12-3.24 15.3 15.3 0 0 1-.6-5.34l-3-26.52a8.72 8.72 0 0 1 8.72-8.7h1.2a8.72 8.72 0 0 1 8.7 8.7v.23l-3 26.3a15.3 15.3 0 0 1-.6 5.34 5 5 0 0 1-5.1 3.23zm-5.7-35.22l3 26.5v.14a13.1 13.1 0 0 0 .3 3.83c.12.3.2.54 1.2.54h1.2c1 0 1.07-.25 1.2-.55a12.8 12.8 0 0 0 .3-3.83v-.36l3-26.28a4.5 4.5 0 0 0-4.5-4.4h-1.2a4.5 4.5 0 0 0-4.5 4.4z"/><path class="cls-9" d="M207.5 48.55H94.66C81.86 48.55 75 68.88 76 74.45c1.7 9.77 9.58 36.05 18.68 36.05H207.5c9.1 0 15.58-26.28 17.26-36.06.96-5.56-4.45-25.9-17.26-25.9z"/><path class="cls-10" d="M77.44 67.85H223.3c-3.36-8-6.27-19.3-15.8-19.3H94.66c-9.53 0-13.85 11.25-17.22 19.3z"/><path class="cls-8" d="M224.6 71.67c-2.2 10.56-8.16 35.83-16.94 35.83h-112c-9 0-16.84-26.76-18.52-36.7a10.1 10.1 0 0 1 .3-3.47c-1.13 3.1-1.66 5.7-1.42 7.1 1.7 9.8 9.58 36.07 18.68 36.07h112.8c9.1 0 15.58-26.28 17.26-36.06a8.14 8.14 0 0 0-.16-2.77z"/><path class="cls-7" d="M132 106.57v-58h-16.12v58a9.87 9.87 0 0 0-4.25 8.3v8.7a10 10 0 0 0 3.76 8h-2.23v11.1h-1.06V158l11.83 1.14 8-1.14v-15.38h2.72v-11.1h-2.22a10 10 0 0 0 3.75-8v-8.7a9.84 9.84 0 0 0-4.18-8.25zm-16.7 8.3a6 6 0 0 1 .6-2.7v14.1a6 6 0 0 1-.6-2.7zm17.33 8.7a6 6 0 0 1-.63 2.7v-14.1a6 6 0 0 1 .63 2.7zM190.52 123.57v-8.7a9.86 9.86 0 0 0-4.24-8.3v-58h-16.1v58a9.87 9.87 0 0 0-4.25 8.3v8.7a10 10 0 0 0 3.76 8h-2.23v11.1h2.7V158l8 1.14 11.88-1.14v-15.38H189v-11.1h-2.2a10 10 0 0 0 3.72-7.95zm-21-8.7a6 6 0 0 1 .62-2.7v14.1a6 6 0 0 1-.62-2.7zm17.34 8.7a6.12 6.12 0 0 1-.62 2.7v-14.1a6.12 6.12 0 0 1 .62 2.7z"/><path class="cls-7" d="M107.16 132.7h24.03v8.4h-24.04z"/><path class="cls-11" d="M128.16 46.67v100.25l-9 5.76-8.97-5.76V46.67"/><path class="cls-12" d="M128.16 105.6a9.32 9.32 0 0 0-4.7-1.26h-8.58a9.32 9.32 0 0 0-4.7 1.26 9.44 9.44 0 0 0-4.74 8.18v8.56a9.44 9.44 0 0 0 4.75 8.18V125a5.27 5.27 0 0 1-.7-2.65v-8.56a5.27 5.27 0 0 1 .7-2.66 5.4 5.4 0 0 1 4.68-2.75h8.6a5.4 5.4 0 0 1 4.68 2.74 5.27 5.27 0 0 1 .7 2.65v8.55a5.27 5.27 0 0 1-.7 2.65v5.53a9.43 9.43 0 0 0 4.74-8.18v-8.56a9.43 9.43 0 0 0-4.74-8.2z"/><path class="cls-13" d="M122.32 112.8a3.15 3.15 0 1 1-3.15-3.14 3.15 3.15 0 0 1 3.15 3.14zM122.32 131.62a3.15 3.15 0 1 1-3.15-3.15 3.15 3.15 0 0 1 3.15 3.15z"/><path class="cls-14" d="M120.84 112.58c0 .7-.75 1.25-1.67 1.25-.92 0-1.66-.56-1.66-1.25V102.2c0-.68.75-1.24 1.67-1.24.92 0 1.67.56 1.67 1.25z"/><path class="cls-7" d="M170.97 132.7H195v8.4h-24.03z"/><path class="cls-11" d="M191.97 46.67v100.25l-9 5.76-8.97-5.76V46.67"/><path class="cls-12" d="M192 105.6a9.35 9.35 0 0 0-4.7-1.26h-8.58a9.32 9.32 0 0 0-4.72 1.26 9.42 9.42 0 0 0-4.75 8.18v8.56a9.42 9.42 0 0 0 4.75 8.18V125a5.27 5.27 0 0 1-.7-2.65v-8.56a5.27 5.27 0 0 1 .7-2.66 5.38 5.38 0 0 1 4.7-2.75h8.58a5.4 5.4 0 0 1 5.4 5.4v8.55A5.37 5.37 0 0 1 192 125v5.53a9.43 9.43 0 0 0 4.74-8.18v-8.56a9.43 9.43 0 0 0-4.74-8.2z"/><path class="cls-13" d="M186.13 112.8a3.15 3.15 0 1 1-3.15-3.14 3.15 3.15 0 0 1 3.15 3.14zM186.13 131.62a3.15 3.15 0 1 1-3.15-3.15 3.15 3.15 0 0 1 3.15 3.15z"/><path class="cls-14" d="M184.65 112.58c0 .7-.75 1.25-1.67 1.25-.92 0-1.66-.56-1.66-1.25V102.2c0-.68.74-1.24 1.66-1.24.92 0 1.67.56 1.67 1.25z"/><path class="cls-7" d="M170.97 130.17H195v8.4h-24.03z"/><path class="cls-9" d="M170.97 128.76H195v8.4h-24.03z"/><path class="cls-7" d="M106.9 130.17h24.02v8.4H106.9z"/><path class="cls-9" d="M106.9 128.76h24.02v8.4H106.9z"/><path class="cls-15" d="M174 62.43V46.67h17.97v15.76M110.2 62.43V46.67h17.96v15.76"/><path class="cls-7" d="M102.77 182.5h96.6a7.42 7.42 0 0 1 7.43 7.43v87.17a7.4 7.4 0 0 1-7.4 7.4h-96.62a7.42 7.42 0 0 1-7.42-7.4v-87.17a7.4 7.4 0 0 1 7.4-7.42z"/><path class="cls-9" d="M102.77 283.92c-2.94 0-5.33-3.15-5.33-7v-90.68c0-3.86 2.4-7 5.33-7h96.6c2.95 0 5.34 3.14 5.34 7v90.67c0 3.87-2.38 7-5.32 7z"/><path class="cls-7" d="M199.38 181.33c1.54 0 3.25 2 3.25 4.9v90.68c0 2.9-1.7 4.93-3.25 4.93h-96.6c-1.54 0-3.25-2-3.25-4.92v-90.66c0-2.9 1.7-4.9 3.24-4.9h96.6m0-4.18h-96.6c-4.1 0-7.4 4.06-7.4 9.08v90.67c0 5 3.3 9.1 7.4 9.1h96.6c4.1 0 7.43-4.07 7.43-9.1v-90.66c0-5-3.32-9.08-7.42-9.08z"/><path class="cls-7" d="M199.38 176.68h-96.6a7.42 7.42 0 0 0-7.42 7.42v15.07c3.5 6.32.23 11.75 3.9 11.75h103.17c3.67 0 .88-5.43 4.37-11.75V184.1a7.42 7.42 0 0 0-7.42-7.42z"/><path class="cls-9" d="M195.37 154.22H106.8c-10.06 0-18.75 18.9-18 23.28 1.3 7.67 3.15 28.3 11.36 28.3H202c8.22 0 10.05-20.63 11.38-28.3.73-4.37-7.96-23.28-18-23.28z"/><path class="cls-10" d="M89.62 172.76h122.9c-2.36-7.14-9.35-18.54-17.15-18.54H106.8c-7.8 0-14.8 11.4-17.18 18.54z"/><g class="cls-16"><path class="cls-17" d="M110.35 155.5a7.64 7.64 0 0 0-2.3.38"/><path class="cls-18" d="M104 158.2c-5.8 4.87-9.93 14.86-9.44 17.72 1.16 6.73 2.77 24.82 10 24.82h94c7.2 0 8.8-18.1 10-24.82.54-3.16-4.57-15-11.33-19.07"/><path class="cls-17" d="M195.06 155.88a7.7 7.7 0 0 0-2.32-.37"/></g><path class="cls-7" d="M166.22 212.34v-8.83a9.77 9.77 0 0 0-4.74-8.42v-40.86h-20.8v40.86a9.78 9.78 0 0 0-4.75 8.43v8.84a9.78 9.78 0 0 0 4.75 8.43v.3h-3v11.26h3v14.6l9 5.93 1.4.95 1.42-.94 9-5.93v-14.6h3v-11.26h-3v-.3a9.77 9.77 0 0 0 4.72-8.43z"/><path class="cls-7" d="M139.06 220.6h24.04v8.4h-24.04z"/><path class="cls-11" d="M160.07 153.28v89.88l-9 5.76-8.98-5.76v-89.88"/><path class="cls-12" d="M160.07 192.9a9.38 9.38 0 0 0-4.7-1.27h-8.6a9.32 9.32 0 0 0-4.68 1.26 9.43 9.43 0 0 0-4.75 8.16v8.57a9.44 9.44 0 0 0 4.74 8.18v-5.52a5.4 5.4 0 0 1-.7-2.65v-8.57a5.4 5.4 0 0 1 5.38-5.4h8.6a5.4 5.4 0 0 1 5.4 5.4v8.57a5.4 5.4 0 0 1-.7 2.65v5.53a9.44 9.44 0 0 0 4.73-8.17v-8.57a9.43 9.43 0 0 0-4.73-8.17z"/><path class="cls-13" d="M154.22 200.1a3.14 3.14 0 1 1-3.14-3.16 3.15 3.15 0 0 1 3.14 3.15zM154.22 181.27a3.14 3.14 0 1 1-3.14-3.14 3.15 3.15 0 0 1 3.14 3.14zM154.22 218.9a3.14 3.14 0 1 1-3.14-3.14 3.15 3.15 0 0 1 3.14 3.14z"/><path class="cls-14" d="M152.74 199.87c0 .7-.74 1.25-1.66 1.25-.92 0-1.67-.56-1.67-1.25V189.5c0-.7.76-1.26 1.68-1.26a1.5 1.5 0 0 1 1.66 1.26z"/><path class="cls-7" d="M139.06 219.5h24.04v8.4h-24.04z"/><path class="cls-9" d="M139.06 217.85h24.04v8.4h-24.04z"/><path class="cls-15" d="M142.1 169.07V153.3h17.97v15.77"/><path class="cls-7" d="M228.37 164.44s-4.7 120.15 19.32 104.13c0 0-4.25 12.25-8.96 14.6s-17-.47-17-.47L221 166.44zM74.66 164.44s4.7 120.15-19.32 104.13c0 0 4.24 12.25 9 14.6s17-.47 17-.47L82 166.44z"/></g></g></g></g></svg>