<svg xmlns="http://www.w3.org/2000/svg" xmlns:xlink="http://www.w3.org/1999/xlink" width="100" height="100" viewBox="0 0 100 100"><g><rect width="100%" height="100%" fill="#FFFFFF"></rect><g transform="translate(50 50) scale(0.69 0.69) rotate(0) translate(-50 -50)" style="fill:#000000;"><svg fill="#000000" xmlns="http://www.w3.org/2000/svg" xmlns:xlink="http://www.w3.org/1999/xlink" version="1.1" x="0px" y="0px" viewBox="0 0 100 100" enable-background="new 0 0 100 100" xml:space="preserve"><path d="M49.423,40.754c-0.436-0.218-0.963-0.051-1.196,0.376c-0.086,0.158-8.038,14.583-19.36,12.766  c1.901-1.135,3.811-2.49,5.643-4.031c4.166-3.504,7.477-7.539,9.322-11.363c1.954-4.051,2.052-7.445,0.272-9.561  c-0.57-0.678-1.316-1.189-2.208-1.533c-2.297-1.275-5.785-1.985-9.707-1.864c-4.367,0.129-19.187,1.799-26.619,17.723  c-0.203,0.434-0.029,0.951,0.394,1.175c0.133,0.071,0.278,0.105,0.419,0.105c0.308,0,0.604-0.157,0.773-0.438  c0.093-0.156,8.534-14.001,19.642-12.912c-1.673,1.044-3.342,2.25-4.953,3.606c-8.83,7.427-13.037,16.487-9.697,20.772  c0.001,0,0,0.001,0.001,0.001c1.35,2.489,5.693,4.097,10.941,4.097c0.261,0,0.525-0.004,0.79-0.012  c4.207-0.129,18.512-1.783,25.952-17.726C50.04,41.497,49.857,40.972,49.423,40.754z"></path><path d="M57.369,12.232v0.636c0-0.212,0.024-0.424,0.054-0.636H57.369z"></path><path fill="#000000" d="M89.972,12.117l0.17,0.853c0.002-0.034,0.016-0.066,0.016-0.101C90.157,12.613,90.082,12.365,89.972,12.117z  "></path><path d="M94.2,13.49c-0.026-0.479-0.452-1.821-0.452-1.821C92.157,8.097,86.377,5,75.581,5c-12.253,0-18.054,3.986-18.59,8.132  c-0.028,0.212-0.054,0.424-0.054,0.636v1.162c0,5.521,4.08,8.832,7.356,11.493c4.404,3.574,6.232,5.333,3.399,9.583  c-1.438,2.155-1.737,4.882-0.805,7.296c0.926,2.394,2.876,4.121,5.351,4.74c1.61,0.401,2.709,1.123,3.271,2.143  c0.686,1.247,0.436,2.687,0.106,3.677c-0.264,0.792,0.052,1.66,0.762,2.099c0.291,0.18,0.618,0.268,0.943,0.268  c0.466,0,0.927-0.18,1.273-0.526c3.309-3.311,4.857-5.957,4.739-8.09c-0.061-1.094-0.546-2.034-1.403-2.719  c-1.076-0.86-1.631-1.696-1.648-2.479c-0.039-1.588,1.962-3.354,3.158-4.408c0.401-0.354,0.747-0.657,1.008-0.939  C92.319,28.579,95.599,20.649,94.2,13.49z M75.581,8.597c7.411,0,13.761,1.958,14.859,4.42c0.11,0.247,0.187,0.497,0.187,0.751  c0,0.034-0.016,0.067-0.017,0.101c-0.165,2.759-6.974,5.073-15.029,5.073c-8.156,0-15.047-2.369-15.047-5.173  C60.535,10.965,67.425,8.597,75.581,8.597z M81.812,34.618c-0.14,0.149-0.437,0.412-0.749,0.688  c-1.667,1.47-4.454,3.929-4.377,7.192c0.047,1.896,1.056,3.646,3.048,5.249c0.004,0.007,0.118,0.493-0.617,1.717  c-0.123-0.351-0.274-0.688-0.451-1.014c-0.73-1.329-2.285-3.084-5.554-3.901c-1.323-0.33-2.367-1.258-2.865-2.546  c-0.521-1.344-0.358-2.804,0.441-4.004c4.769-7.152-0.163-11.157-4.125-14.372c-1.25-1.016-2.47-2.008-3.483-3.082  c2.994,1.215,7.12,1.991,12.502,1.991c7.169,0,12.126-1.366,15.119-3.329C89.92,23.914,86.954,29.072,81.812,34.618z"></path><path d="M80.733,68.394c-0.092-0.514-0.403-0.964-0.854-1.23L58.873,54.75c-0.576-0.34-1.294-0.334-1.862,0.019L36.96,67.182  c-0.44,0.273-0.742,0.72-0.827,1.229c-0.086,0.51,0.051,1.032,0.377,1.435c0.766,0.944,1.582,1.777,2.462,2.519v7.939  c0.308,0.047,0.606,0.103,0.9,0.168c0.308,0.068,0.607,0.147,0.899,0.231c0.309,0.089,0.607,0.184,0.899,0.282  c0.311,0.106,0.609,0.215,0.9,0.326v-6.634c3.713,1.775,8.539,2.516,15.387,2.516c7.185,0,12.402-0.811,16.343-2.649v5.953  c0.293-0.065,0.593-0.126,0.9-0.175c0.293-0.048,0.591-0.084,0.898-0.11c0.294-0.024,0.595-0.039,0.899-0.041  c0.042-0.002,0.081-0.005,0.124-0.005c0.264,0,0.521,0.014,0.776,0.029v-7.888c0.898-0.73,1.717-1.546,2.462-2.462  C80.689,69.439,80.827,68.909,80.733,68.394z"></path><g><path fill="#000000" d="M87.112,88.076c-2.22,0-4.05-0.731-5.663-1.378c-1.44-0.576-2.802-1.12-4.329-1.12   c-1.528,0-2.889,0.544-4.327,1.12c-1.614,0.646-3.444,1.378-5.665,1.378c-2.22,0-4.048-0.731-5.663-1.378   c-1.44-0.576-2.802-1.12-4.33-1.12c-1.525,0-2.886,0.543-4.326,1.12c-1.615,0.646-3.444,1.378-5.666,1.378   c-2.219,0-4.048-0.731-5.663-1.378c-1.441-0.576-2.802-1.12-4.328-1.12c-1.528,0-2.887,0.544-4.33,1.12   c-1.614,0.646-3.443,1.378-5.663,1.378v-3.599c1.526,0,2.887-0.543,4.328-1.119c1.614-0.646,3.444-1.377,5.665-1.377   c2.22,0,4.05,0.731,5.664,1.377c1.441,0.576,2.8,1.119,4.326,1.119c1.528,0,2.889-0.543,4.33-1.119   c1.613-0.646,3.444-1.377,5.663-1.377c2.222,0,4.05,0.731,5.664,1.377c1.439,0.576,2.801,1.119,4.327,1.119   c1.528,0,2.887-0.543,4.328-1.119c1.613-0.646,3.442-1.377,5.665-1.377c2.219,0,4.049,0.731,5.662,1.377   c1.441,0.576,2.802,1.119,4.33,1.119L87.112,88.076L87.112,88.076z"></path></g><g><path fill="#000000" d="M87.112,95c-2.22,0-4.05-0.731-5.663-1.377c-1.44-0.577-2.802-1.121-4.329-1.121   c-1.528,0-2.889,0.544-4.327,1.121C71.179,94.269,69.349,95,67.128,95c-2.22,0-4.048-0.731-5.663-1.377   c-1.44-0.577-2.802-1.121-4.33-1.121c-1.525,0-2.886,0.544-4.326,1.12C51.195,94.269,49.366,95,47.146,95   c-2.219,0-4.048-0.731-5.663-1.377c-1.441-0.577-2.802-1.121-4.328-1.121c-1.528,0-2.887,0.544-4.33,1.121   C31.211,94.269,29.382,95,27.162,95v-3.598c1.526,0,2.887-0.544,4.328-1.119c1.614-0.647,3.444-1.378,5.665-1.378   c2.22,0,4.05,0.73,5.664,1.378c1.441,0.575,2.8,1.119,4.327,1.119c1.528,0,2.889-0.544,4.33-1.12   c1.614-0.646,3.443-1.377,5.662-1.377c2.222,0,4.05,0.73,5.664,1.378c1.441,0.575,2.802,1.119,4.328,1.119   c1.528,0,2.888-0.544,4.328-1.119c1.613-0.647,3.442-1.378,5.664-1.378c2.219,0,4.05,0.73,5.663,1.377   c1.442,0.576,2.801,1.12,4.33,1.12V95H87.112z"></path></g></svg></g></g></svg>