<svg xmlns="http://www.w3.org/2000/svg" xmlns:xlink="http://www.w3.org/1999/xlink" xml:space="preserve" version="1.1" style="shape-rendering:geometricPrecision;text-rendering:geometricPrecision;image-rendering:optimizeQuality;" viewBox="0 0 901 1036.25" x="0px" y="0px" fill-rule="evenodd" clip-rule="evenodd"><defs><style type="text/css">
   
    .fil0 {fill:black}
   
  </style></defs><g><path class="fil0" d="M207 60c0,-22 -34,-22 -34,0l0 75c0,22 34,22 34,0l0 -75zm374 210l0 176c98,20 185,60 255,114l0 269 -804 0 0 -269c69,-53 155,-93 251,-113l0 -177 149 -128 149 128zm-165 161l0 -141 -93 0 0 150c30,-5 61,-8 93,-9zm315 -281c0,-22 34,-22 34,0l0 119c0,22 -34,22 -34,0l0 -119zm88 346c18,12 36,-17 17,-28 -39,-25 -82,-44 -126,-59 -21,-7 -32,25 -11,32 42,14 82,32 120,55zm57 -47c18,12 36,-17 17,-29 -45,-27 -94,-50 -144,-67 -21,-7 -32,25 -11,32 48,17 95,38 138,64zm-793 39c-19,11 -37,-17 -18,-29 40,-24 82,-44 126,-59 21,-7 32,25 11,33 -42,13 -82,32 -119,55zm-57 -47c-19,11 -37,-17 -18,-29 45,-28 94,-50 144,-67 21,-7 32,25 11,32 -48,16 -94,37 -137,64zm651 -247c0,-22 34,-22 34,0l0 75c0,22 -34,22 -34,0l0 -75zm-524 -177c0,-23 -34,-23 -34,0l0 118c0,22 34,22 34,0l0 -118zm52 233l191 -164 38 -33 38 33 50 43 0 -42 59 0 0 93 82 70 -38 33 -191 -164 -191 164 -38 -33zm336 142l-46 0 0 -46 46 0 0 46zm-102 0l47 0 0 -46 -47 0 0 46zm102 -102l-46 0 0 47 46 0 0 -47zm-102 0l47 0 0 47 -47 0 0 -47z"/></g><text x="0" y="844" fill="#000000" font-size="5px" font-weight="bold" font-family="'Helvetica Neue', Helvetica, Arial-Unicode, Arial, Sans-serif">Created by Claudia Revalina</text><text x="0" y="849" fill="#000000" font-size="5px" font-weight="bold" font-family="'Helvetica Neue', Helvetica, Arial-Unicode, Arial, Sans-serif">from the Noun Project</text></svg>