<svg xmlns="http://www.w3.org/2000/svg" xmlns:xlink="http://www.w3.org/1999/xlink" xml:space="preserve" version="1.1" style="shape-rendering:geometricPrecision;text-rendering:geometricPrecision;image-rendering:optimizeQuality;" viewBox="0 0 938 1185" x="0px" y="0px" fill-rule="evenodd" clip-rule="evenodd"><defs><style type="text/css">
   
    .fil0 {fill:black}
   
  </style></defs><g><path class="fil0" d="M331 877l27 0c-20,4 -40,3 -60,-3l0 -139 -129 0 0 68c-18,-4 -37,-6 -55,-5l0 -91 207 -178 208 178 0 92c-20,2 -40,6 -58,14l-63 0 0 40 -2 2c-3,3 -7,5 -10,8l0 -50 -65 0 0 64zm-302 28c-16,15 -40,-9 -24,-24 65,-65 171,-65 235,-1 55,45 134,45 189,0 64,-64 169,-65 235,0 59,48 145,46 202,-5 7,-6 17,-6 24,1 6,7 5,18 -2,24 -70,63 -175,65 -247,5 -56,-56 -133,-50 -190,1 -67,56 -167,55 -234,-1 -52,-51 -135,-53 -188,0zm-25 -226l266 -229 54 -45 53 45 69 60 0 -58 83 0 0 129 114 98 -53 46 -266 -229 -267 229 -53 -46zm655 -218c10,156 -139,70 0,0zm74 147c9,156 -140,70 0,0zm56 -147c10,156 -139,70 0,0zm-518 -146c9,155 -140,69 0,0zm115 0c9,155 -140,69 0,0zm115 0c9,155 -140,69 0,0zm115 0c9,155 -140,69 0,0zm115 0c9,155 -140,69 0,0zm115 0c10,155 -140,69 0,0zm-588 -94l1 0c4,-26 38,-46 67,-33 -21,-44 42,-99 110,-86 0,-156 336,-121 286,22 2,-1 5,-1 7,-1 66,0 108,53 81,98 172,2 170,66 -1,66l-551 0c-159,0 -159,-66 0,-66zm215 514l-65 0 0 65 65 0 0 -65zm-142 0l65 0 0 65 -65 0 0 -65z"/></g><text x="0" y="963" fill="#000000" font-size="5px" font-weight="bold" font-family="'Helvetica Neue', Helvetica, Arial-Unicode, Arial, Sans-serif">Created by Claudia Revalina</text><text x="0" y="968" fill="#000000" font-size="5px" font-weight="bold" font-family="'Helvetica Neue', Helvetica, Arial-Unicode, Arial, Sans-serif">from the Noun Project</text></svg>