<?xml version="1.0" encoding="UTF-8" standalone="no"?>
<svg height="512" width="512"   viewBox="0 0 55 57" version="1.1" xmlns="http://www.w3.org/2000/svg" xmlns:xlink="http://www.w3.org/1999/xlink" xmlns:sketch="http://www.bohemiancoding.com/sketch/ns">
    <!-- Generator: Sketch 3.2.2 (9983) - http://www.bohemiancoding.com/sketch -->
    <title>27 - Survival Knife (Flat)</title>
    <desc>Created with Sketch.</desc>
    <defs></defs>
    <g id="Page-1" stroke="none" stroke-width="1" fill="none" fill-rule="evenodd" sketch:type="MSPage">
        <g id="27---Survival-Knife-(Flat)" sketch:type="MSLayerGroup" transform="translate(0.000000, -1.000000)">
            <path d="M32.782,28.54 L25.711,35.611 L5.161,15.06 C2.019,11.919 0.407,7.561 0.748,3.131 L0.91,1.034 C0.913,0.988 0.968,0.968 1,1 L3.807,3.807 C5.156,5.156 6.846,6.113 8.697,6.575 C10.547,7.038 12.238,7.995 13.587,9.344 L32.782,28.54" id="Fill-339" fill="#E0E2E3" sketch:type="MSShapeGroup"></path>
            <path d="M38.352,30.041 L27.213,41.18 C26.774,41.619 26.062,41.619 25.624,41.18 L23.677,39.234 C23.238,38.795 23.238,38.083 23.677,37.645 L34.816,26.506 C35.255,26.067 35.966,26.067 36.405,26.506 L38.352,28.452 C38.79,28.891 38.79,29.602 38.352,30.041" id="Fill-340" fill="#38454F" sketch:type="MSShapeGroup"></path>
            <path d="M15.104,20.347 C14.849,20.347 14.593,20.25 14.397,20.054 L9.448,15.104 C9.057,14.714 9.057,14.081 9.448,13.69 C9.838,13.3 10.471,13.3 10.862,13.69 L15.811,18.64 C16.202,19.031 16.202,19.664 15.811,20.054 C15.616,20.25 15.36,20.347 15.104,20.347" id="Fill-341" fill="#FFFFFF" sketch:type="MSShapeGroup"></path>
            <path d="M54.695,48.29 L45.238,57.747 C45.098,57.887 44.872,57.887 44.732,57.747 L41.253,54.268 C41.113,54.128 41.113,53.902 41.253,53.762 L50.71,44.305 C50.849,44.166 51.076,44.166 51.215,44.305 L54.695,47.785 C54.834,47.924 54.834,48.151 54.695,48.29" id="Fill-342" fill="#38454F" sketch:type="MSShapeGroup"></path>
            <path d="M49.629,45.386 L36.318,32.075 L29.247,39.146 L42.558,52.457 L49.629,45.386" id="Fill-343" fill="#556080" sketch:type="MSShapeGroup"></path>
            <path d="M30.841,40.741 L32.255,42.155 L39.425,35.182 L38.011,33.768 L30.841,40.741" id="Fill-705" fill="#38454F" sketch:type="MSShapeGroup"></path>
            <path d="M33.669,43.569 L35.084,44.983 L42.254,38.011 L40.839,36.597 L33.669,43.569" id="Fill-706" fill="#38454F" sketch:type="MSShapeGroup"></path>
            <path d="M36.498,46.397 L37.912,47.812 L45.082,40.839 L43.667,39.425 L36.498,46.397" id="Fill-707" fill="#38454F" sketch:type="MSShapeGroup"></path>
            <path d="M39.326,49.226 L40.741,50.64 L47.91,43.668 L46.496,42.254 L39.326,49.226" id="Fill-708" fill="#38454F" sketch:type="MSShapeGroup"></path>
        </g>
    </g>
</svg>