<?xml version="1.0" encoding="UTF-8" standalone="no"?>
<!-- Created with Inkscape (http://www.inkscape.org/) -->

<svg
   xmlns:dc="http://purl.org/dc/elements/1.1/"
   xmlns:cc="http://creativecommons.org/ns#"
   xmlns:rdf="http://www.w3.org/1999/02/22-rdf-syntax-ns#"
   xmlns:svg="http://www.w3.org/2000/svg"
   xmlns="http://www.w3.org/2000/svg"
   xmlns:sodipodi="http://sodipodi.sourceforge.net/DTD/sodipodi-0.dtd"
   xmlns:inkscape="http://www.inkscape.org/namespaces/inkscape"
   width="506.05032"
   height="800"
   id="svg2"
   version="1.1"
   inkscape:version="0.92.2 (5c3e80d, 2017-08-06)"
   sodipodi:docname="pliers.svg">
  <defs
     id="defs4" />
  <sodipodi:namedview
     id="base"
     pagecolor="#ffffff"
     bordercolor="#666666"
     borderopacity="1.0"
     inkscape:pageopacity="0.0"
     inkscape:pageshadow="2"
     inkscape:zoom="1.4"
     inkscape:cx="204.46543"
     inkscape:cy="378.2219"
     inkscape:document-units="px"
     inkscape:current-layer="layer1"
     showgrid="false"
     showguides="true"
     inkscape:guide-bbox="true"
     inkscape:snap-global="true"
     inkscape:object-paths="true"
     inkscape:snap-center="true"
     inkscape:snap-object-midpoints="true"
     fit-margin-top="0"
     fit-margin-left="100"
     fit-margin-right="100"
     fit-margin-bottom="0"
     inkscape:window-width="1920"
     inkscape:window-height="1001"
     inkscape:window-x="-9"
     inkscape:window-y="-9"
     inkscape:window-maximized="1" />
  <metadata
     id="metadata7">
    <rdf:RDF>
      <cc:Work
         rdf:about="">
        <dc:format>image/svg+xml</dc:format>
        <dc:type
           rdf:resource="http://purl.org/dc/dcmitype/StillImage" />
        <dc:title></dc:title>
      </cc:Work>
    </rdf:RDF>
  </metadata>
  <g
     inkscape:label="Layer 1"
     inkscape:groupmode="layer"
     id="layer1"
     transform="translate(629.81088,-568.88076)">
    <g
       id="g3873"
       transform="matrix(0,0.3371865,-0.3371865,0,-151.51935,830.80242)">
      <path
         sodipodi:nodetypes="csscccc"
         inkscape:transform-center-y="-53.392863"
         inkscape:transform-center-x="199.21891"
         inkscape:connector-curvature="0"
         id="path3002"
         d="m -776.78572,668.07647 v -12.5 c 0,-3.04911 4.12614,-5.27107 7.14286,-5.71429 l 602.85715,-88.57143 1.78571,97.14286 -575.17857,9.64286 z"
         style="fill:#262626;fill-opacity:1;stroke:none" />
      <path
         id="path3004"
         d="m 14.1875,547.3125 -189.90625,3.625 -1.4375,26.78125 8.1875,88.5 98.6875,0.25 0.5625,1.40625 3.28125,0.15625 c 0.01277,-54.43825 33.29725,-101.0617 80.625,-120.71875 z m 178.53125,145.25 c -8.59429,45.36169 -40.60345,82.41288 -83,98.125 l 86.71875,1.6875 18.5625,-85 -16.4375,-5.71875 z"
         style="fill:#9c9c9c;fill-opacity:1;stroke:none"
         inkscape:connector-curvature="0" />
      <path
         sodipodi:nodetypes="csscccc"
         style="fill:#262626;fill-opacity:1;stroke:none"
         d="m -776.78572,668.07648 v 12.5 c 0,3.04911 4.12614,5.27107 7.14286,5.71429 L -166.78571,774.8622 -165,677.71934 -740.17857,668.07648 Z"
         id="path3006"
         inkscape:connector-curvature="0"
         inkscape:transform-center-x="199.21891"
         inkscape:transform-center-y="53.392867" />
      <path
         style="fill:#101010;fill-opacity:1;stroke:none"
         d="m -177.125,577.24669 1.40625,-26.3125 39.625,-0.75 c -25.47874,0.48904 -34.00445,0.64773 -41.03125,27.0625 z"
         id="path3015"
         inkscape:connector-curvature="0"
         inkscape:transform-center-x="-20.765625"
         inkscape:transform-center-y="-104.36103" />
      <path
         id="path2998"
         d="m 196.4375,543.78125 -94.125,1.8125 -35.125,0.6875 -45.5625,0.875 c -49.764533,17.55221 -85.4564,64.91032 -85.5625,120.65625 l -0.8125,0.25 -4.96875,0.21875 -0.5625,1.375 -98.6875,0.28125 -8.1875,88.5 1.4375,26.78125 242.90625,4.65625 35.09375,0.6875 c 52.2543,-16.19499 90.21875,-64.92223 90.21875,-122.5 0,-7.28409 -0.58273,-14.42303 -1.75,-21.375 L 198.5625,634.5 215,628.78125 Z"
         style="color:#000000;display:inline;overflow:visible;visibility:visible;fill:#9c9c9c;fill-opacity:1;stroke:none;stroke-width:0.30000001;marker:none;enable-background:accumulate"
         inkscape:connector-curvature="0" />
      <path
         inkscape:transform-center-y="-236.80238"
         inkscape:transform-center-x="1031.4308"
         sodipodi:nodetypes="ssssssssssccccccccssssssscsss"
         inkscape:connector-curvature="0"
         id="path3017"
         d="m 198.49498,627.84557 c -8.56464,-27.98047 -19.75468,-58.57607 -24.25394,-80.57443 -3.98083,-19.46362 -7.28469,-37.62564 -8.82856,-54.78601 -0.57331,-6.37245 4.85201,-12.89684 10.35406,-16.16244 9.51175,-5.64546 20.94976,-6.66761 41.16372,-14.14213 31.98941,-11.82873 39.30596,-31.39104 46.21448,-51.77032 4.08744,-12.05744 7.6885,-24.28774 10.85914,-36.61803 2.13793,-8.31417 5.75015,-15.17703 12.62691,-17.67767 6.10747,-2.2209 12.46058,-3.69706 18.68782,-5.55584 16.88711,-5.04066 28.6316,-0.5015 41.16371,8.5863 36.93875,26.78655 69.86737,57.71712 167.08911,29.64575 45.21767,-18.16716 84.97973,-31.04959 128.57143,-41.42857 35.54006,-18.90709 69.74199,-28.14978 105.71428,-37.14286 32.98472,-18.68004 66.09894,-25.37249 100,-32.85714 37.11861,-19.16615 73.50539,-26.75863 111.07143,-34.64286 37.5573,-13.55107 73.79263,-17.05783 110.35713,-20.71428 39.6732,-9.07034 76.2132,-7.30884 113.5714,-5.71429 42.9598,-5.72021 77.6599,1.55615 116.4286,9.64286 62.9306,8.60815 150.1345,19.29248 237.1429,50 26.3096,9.28534 61.1212,31.76918 59.2857,68.21428 -1.1593,23.01972 -10.2711,47.92959 -17.1429,71.07143 -3.5357,11.90698 -12.6475,18.26076 -23.5714,17.85715 -15.2906,-0.56494 -28.2044,-0.76377 -41.4286,1.42857 -37.6936,6.24892 -46.6162,1.82609 -62.1428,-4.28572 -170.5548,-67.13618 -381.2672,-60.17711 -531.33543,-3.7211 -177.5909,66.8101 -393.27822,146.98877 -597.85451,221.80294 -12.92975,-26.28861 -29.34179,-15.65273 -44.95179,-13.13198 -16.17583,2.61213 -32.15636,6.74685 -48.48732,8.08122 -15.32261,1.25198 -24.38341,3.93948 -30.30457,-15.40483 z"
         style="fill:#efb525;fill-opacity:1;stroke:none" />
      <path
         inkscape:transform-center-y="-318.8755"
         inkscape:transform-center-x="948.00471"
         inkscape:connector-curvature="0"
         id="path3019"
         d="m 1213.7188,214.25 c -9.9003,-0.004 -20.1352,0.6012 -30.875,2.03125 -13.5278,-0.5774 -26.9383,-1.18304 -40.4376,-1.28125 l 0.031,0.4375 c 0.1776,4.74525 -6.7505,8.82639 -15.5625,9.15625 l -6.0312,0.21875 c -8.8121,0.32986 -16.0412,-3.2235 -16.2188,-7.96875 v -0.40625 c -11.5645,1.06565 -23.312,2.81172 -35.3438,5.5625 -13.9205,1.39206 -27.8048,2.7755 -41.7187,4.6875 0.4117,4.58062 -5.8566,9.32246 -14.3437,10.71875 l -5.9688,0.96875 c -8.0897,1.33089 -15.2271,-0.86011 -16.8125,-4.9375 -10.42053,2.45352 -20.90459,5.45831 -31.5,9.28125 -14.51173,3.04567 -28.85097,6.0737 -43.125,9.71875 -0.36179,4.14501 -5.60212,8.75529 -12.90625,11 l -5.75,1.78125 c -7.37544,2.26663 -14.3454,1.33957 -16.90625,-1.96875 -10.77049,3.92142 -21.56117,8.52516 -32.40625,14.125 -12.18504,2.6902 -24.26899,5.26703 -36.28125,8.34375 -0.95865,3.86056 -5.70665,8.03658 -12.25,10.34375 l -5.6875,2 c -7.34365,2.58935 -14.41929,1.92975 -17.0625,-1.34375 -9.59581,3.70917 -19.16068,8.08703 -28.71875,13.5 -13.06269,3.26567 -25.88486,6.55918 -38.625,10.34375 -0.3944,4.08892 -5.36185,8.73491 -12.40625,11.21875 l -5.6875,2 c -7.22609,2.5479 -14.19784,1.95112 -16.9375,-1.1875 -10.61387,4.22013 -21.25454,9.04811 -32.03125,14.78125 -10.93065,2.60254 -21.62119,5.3534 -32.21875,8.3125 -0.24303,4.13965 -5.26896,8.90989 -12.4375,11.4375 l -5.65625,2 c -8.15404,2.87509 -15.95912,1.73527 -17.75,-2.53125 -19.62253,6.44098 -39.4865,13.73233 -60.53125,22.1875 -97.22174,28.07137 -130.155,-2.83845 -167.09375,-29.625 -4.76024,-3.45194 -9.39203,-6.26135 -14.25,-8.125 C 365.17773,446.88102 465.46844,514.91069 577.8125,470 858.66023,357.72826 1127.0926,226.39794 1510,356.65625 c 15.6493,5.32362 32.5472,5.90719 48.5625,10 10.6633,2.72508 21.2706,5.66085 31.8437,8.71875 2.7301,-10.57218 4.8012,-21.06797 5.3126,-31.21875 1.8354,-36.4451 -32.9717,-58.93341 -59.2813,-68.21875 -87.0084,-30.70752 -174.2256,-41.39185 -237.1563,-50 -14.1943,-2.96078 -27.8544,-5.8231 -41.5624,-7.96875 l -0.094,1.4375 c -0.3251,4.73743 -7.6712,8.07244 -16.4688,7.46875 l -6,-0.40625 c -8.7973,-0.60369 -15.6063,-4.91882 -15.2812,-9.65625 l 0.1562,-2.46875 c -2.0936,-0.0561 -4.1909,-0.0929 -6.3124,-0.0937 z"
         style="fill:#000000;fill-opacity:1;stroke:none" />
      <path
         style="fill:#efb525;fill-opacity:1;stroke:none"
         d="m 198.49498,708.30738 c -8.56464,27.98047 -19.75468,58.57607 -24.25394,80.57443 -3.98083,19.46362 -7.28469,37.62564 -8.82856,54.78601 -0.57331,6.37245 4.85201,12.89684 10.35406,16.16244 9.51175,5.64546 20.94976,6.66761 41.16372,14.14213 31.98941,11.82873 39.30596,31.39104 46.21448,51.77032 4.08744,12.05744 7.6885,24.28774 10.85914,36.61803 2.13793,8.31417 5.75015,15.17703 12.62691,17.67767 6.10747,2.2209 12.46058,3.69706 18.68782,5.55584 16.88711,5.04066 28.6316,0.5015 41.16371,-8.5863 36.93875,-26.78655 69.86737,-57.71712 167.08911,-29.64575 45.21767,18.16716 84.97973,31.04959 128.57143,41.42857 35.54006,18.90713 69.74199,28.14983 105.71428,37.14283 32.98472,18.6801 66.09894,25.3725 100,32.8572 37.11861,19.1661 73.50539,26.7586 111.07143,34.6428 37.5573,13.5511 73.79263,17.0579 110.35713,20.7143 39.6732,9.0704 76.2132,7.3089 113.5714,5.7143 42.9598,5.7202 77.6599,-1.5561 116.4286,-9.6429 62.9306,-8.6081 150.1345,-19.2924 237.1429,-50 26.3096,-9.2853 61.1212,-31.7691 59.2857,-68.21424 -1.1593,-23.01972 -10.2711,-47.92959 -17.1429,-71.07143 -3.5357,-11.90698 -12.6475,-18.26076 -23.5714,-17.85715 -15.2906,0.56494 -28.2044,0.76377 -41.4286,-1.42857 -37.6936,-6.24892 -46.6162,-1.82609 -62.1428,4.28572 -170.5548,67.13618 -381.2672,60.17711 -531.33543,3.7211 -177.5909,-66.8101 -393.27822,-146.98877 -597.85451,-221.80294 -12.92975,26.28861 -29.34179,15.65273 -44.95179,13.13198 -16.17583,-2.61213 -32.15636,-6.74685 -48.48732,-8.08122 -15.32261,-1.25198 -24.38341,-3.93948 -30.30457,15.40483 z"
         id="path3079"
         inkscape:connector-curvature="0"
         sodipodi:nodetypes="ssssssssssccccccccssssssscsss"
         inkscape:transform-center-x="1031.4308"
         inkscape:transform-center-y="236.80238" />
      <path
         style="fill:#000000;fill-opacity:1;stroke:none"
         d="m 1213.7188,1121.903 c -9.9003,0 -20.1352,-0.6012 -30.875,-2.0313 -13.5278,0.5774 -26.9383,1.183 -40.4376,1.2813 l 0.031,-0.4375 c 0.1776,-4.7453 -6.7505,-8.8264 -15.5625,-9.1563 l -6.0312,-0.2187 c -8.8121,-0.3299 -16.0412,3.2235 -16.2188,7.9687 v 0.4063 c -11.5645,-1.0657 -23.312,-2.8118 -35.3438,-5.5625 -13.9205,-1.3921 -27.8048,-2.7755 -41.7187,-4.6875 0.4117,-4.5807 -5.8566,-9.3225 -14.3437,-10.7188 l -5.9688,-0.9687 c -8.0897,-1.3309 -15.2271,0.8601 -16.8125,4.9375 -10.42053,-2.4536 -20.90459,-5.4584 -31.5,-9.2813 -14.51173,-3.0457 -28.85097,-6.0737 -43.125,-9.7187 -0.36179,-4.1451 -5.60212,-8.7553 -12.90625,-11 l -5.75,-1.7813 c -7.37544,-2.2666 -14.3454,-1.3396 -16.90625,1.9688 -10.77049,-3.9215 -21.56117,-8.5252 -32.40625,-14.125 -12.18504,-2.6902 -24.26899,-5.2671 -36.28125,-8.3438 -0.95865,-3.8606 -5.70665,-8.0366 -12.25,-10.3437 l -5.6875,-2 c -7.34365,-2.5894 -14.41929,-1.9298 -17.0625,1.3437 -9.59581,-3.7092 -19.16068,-8.087 -28.71875,-13.5 -13.06269,-3.2657 -25.88486,-6.5592 -38.625,-10.3437 -0.3944,-4.089 -5.36185,-8.735 -12.40625,-11.2188 l -5.6875,-2 c -7.22609,-2.5479 -14.19784,-1.9511 -16.9375,1.1875 -10.61387,-4.22013 -21.25454,-9.04811 -32.03125,-14.78125 -10.93065,-2.60254 -21.62119,-5.3534 -32.21875,-8.3125 -0.24303,-4.13965 -5.26896,-8.90989 -12.4375,-11.4375 l -5.65625,-2 c -8.15404,-2.87509 -15.95912,-1.73527 -17.75,2.53125 -19.62253,-6.44098 -39.4865,-13.73233 -60.53125,-22.1875 -97.22174,-28.07137 -130.155,2.83845 -167.09375,29.625 -4.76024,3.45194 -9.39203,6.26135 -14.25,8.125 C 365.17773,889.27193 465.46844,821.24226 577.8125,866.15295 858.66023,978.42469 1127.0926,1109.755 1510,979.4967 c 15.6493,-5.32362 32.5472,-5.90719 48.5625,-10 10.6633,-2.72508 21.2706,-5.66085 31.8437,-8.71875 2.7301,10.57218 4.8012,21.06797 5.3126,31.21875 1.8354,36.4451 -32.9717,58.9334 -59.2813,68.2188 -87.0084,30.7075 -174.2256,41.3918 -237.1563,50 -14.1943,2.9607 -27.8544,5.8231 -41.5624,7.9687 l -0.094,-1.4375 c -0.3251,-4.7374 -7.6712,-8.0724 -16.4688,-7.4687 l -6,0.4062 c -8.7973,0.6037 -15.6063,4.9188 -15.2812,9.6563 l 0.1562,2.4687 c -2.0936,0.056 -4.1909,0.093 -6.3124,0.094 z"
         id="path3081"
         inkscape:connector-curvature="0"
         inkscape:transform-center-x="948.00471"
         inkscape:transform-center-y="318.87561" />
      <path
         inkscape:transform-center-y="104.36103"
         inkscape:transform-center-x="-20.765625"
         inkscape:connector-curvature="0"
         id="path3010"
         d="m -177.125,758.90625 1.40625,26.3125 39.625,0.75 c -25.47874,-0.48904 -34.00445,-0.64773 -41.03125,-27.0625 z"
         style="fill:#101010;fill-opacity:1;stroke:none" />
    </g>
  </g>
</svg>
